<?xml version="1.0" encoding="UTF-8"?>
<svg id="Layer_2" data-name="Layer 2" xmlns="http://www.w3.org/2000/svg" viewBox="0 0 115.65 111.53">
  <defs>
    <style>
      .cls-1 {
        fill: #f47f52;
      }

      .cls-2 {
        fill: #162950;
      }
    </style>
  </defs>
  <g id="Layer_1-2" data-name="Layer 1">
    <g>
      <path class="cls-1" d="M74.18,78.95c0-8.8,6.37-13.04,16.18-17.4,8.09-3.54,11.03-6.07,11.03-9.81,0-2.83-2.12-4.85-5.46-4.85-4.55,0-7.38,3.34-7.78,9.4h-13.15c.71-12.13,9.2-20.13,21.44-20.13s19.22,6.68,19.22,18.61v38.23h-14.37v-4.76c-2.93,3.44-7.18,5.46-12.04,5.46-9.1,0-15.07-5.77-15.07-14.77ZM94.3,83.6c2.73,0,5.36-1.21,6.98-3.24v-10.11l.1-5.16c-1.32,1.11-2.93,2.02-5.16,3.14-5.26,2.83-7.69,5.06-7.69,9.3,0,3.64,2.23,6.07,5.77,6.07Z"/>
      <path class="cls-2" d="M42.89,37.49h14.77v6.17c2.93-4.75,7.19-7.28,12.44-7.28,11.84,0,18.91,10.52,18.91,28.82s-7.28,28.93-18.91,28.93c-5.26,0-9.51-2.53-12.44-7.38v24.78h-14.77V37.49ZM74.35,65.3c0-12.64-2.83-18-8.29-18s-8.49,5.36-8.49,18,2.93,18,8.49,18,8.29-5.36,8.29-18Z"/>
      <path class="cls-1" d="M16.08,37.49h14.77v4.75c2.83-3.54,6.98-5.86,12.04-5.86,9.1,0,14.77,5.97,14.77,14.77v41.87h-14.77v-39.65c0-3.94-2.23-6.07-5.87-6.07-2.42,0-4.65,1.11-6.17,3.03v42.68h-14.77v-55.53Z"/>
      <rect class="cls-2" x="20.52" y="16.6" width="10.26" height="10.26" transform="translate(51.29 43.46) rotate(-180)"/>
      <rect class="cls-2" x="41.03" y="0" width="16.6" height="16.6" transform="translate(98.67 16.6) rotate(-180)"/>
      <rect class="cls-2" x="7.84" y="26.86" width="6.34" height="6.34" transform="translate(22.01 60.06) rotate(-180)"/>
      <rect class="cls-2" x="0" y="33.2" width="3.92" height="3.92" transform="translate(3.92 70.31) rotate(-180)"/>
    </g>
  </g>
</svg>